# xmcd
#
# Track frame offsets:
#	150
#	16493
#	37369
#	49355
#	68243
#	82579
#	114931
#	129864
#	145307
#	157963
#	173304
#	195288
#	208348
#	227764
#	244035
#	265506
#	282197
#	299029
#
# Disc length: 4212 seconds
#
# Revision: 0
# Processed by: cddbd v1.5.1PL0 Copyright (c) Steve Scherf et al.
# Submitted via: dBpowerAMP V4.0
#
DISCID=f9107212
DTITLE=Foreday Riders - Recycled
DYEAR=1900
DGENRE=Blues
TTITLE0=I'm Having A Ball
TTITLE1=When I Find A Baby
TTITLE2=Love The Life I Live
TTITLE3=Wind Blues
TTITLE4=Good Morning Miss Brown
TTITLE5=Black Night
TTITLE6=Once A week
TTITLE7=Quits
TTITLE8=Saving For My Holidays
TTITLE9=Come On Home
TTITLE10=Klutz
TTITLE11=The Wrong Man
TTITLE12=You Don't Love Me
TTITLE13=Hollywood
TTITLE14=Cold Cold Feeling
TTITLE15=Boggabri Sleigh Ride
TTITLE16=Big Road Blues
TTITLE17=Caldonia
EXTD=Australian Blues Band from 1970s. \nReissue in 2003 by tranfering from vynl records as master tapes had been lost\nTracks 1-6 originally from Blues Live At French's 1974\nTracks 7-12 originally from Once A Week1975\nTracks 13-18 originally from Pla
EXTD=yin' Up 1977
EXTT0=
EXTT1=
EXTT2=
EXTT3=
EXTT4=
EXTT5=
EXTT6=
EXTT7=
EXTT8=
EXTT9=
EXTT10=
EXTT11=
EXTT12=
EXTT13=
EXTT14=
EXTT15=
EXTT16=
EXTT17=
PLAYORDER=
